HIERARCHY
ROOT Hips
{
	OFFSET 0.00000 0.00000 0.00000
	CHANNELS 6 Xposition Yposition Zposition Zrotation Yrotation Xrotation 
	JOINT LHipJoint
	{
		OFFSET 0 0 0
		CHANNELS 3 Zrotation Yrotation Xrotation
		JOINT LeftHip
		{
			OFFSET 1.82298 -1.58346 0.87084
			CHANNELS 3 Zrotation Yrotation Xrotation
			JOINT LeftKnee
			{
				OFFSET 2.43790 -6.69809 0.00000
				CHANNELS 3 Zrotation Yrotation Xrotation
				JOINT LeftAnkle
				{
					OFFSET 2.59288 -7.12389 0.00000
					CHANNELS 3 Zrotation Yrotation Xrotation
					JOINT LeftToe
					{
						OFFSET 0.14552 -0.39981 2.13160
						CHANNELS 3 Zrotation Yrotation Xrotation
						End Site
						{
							OFFSET 0.00000 -0.00000 1.09427
						}
					}
				}
			}
		}
	}
	JOINT RHipJoint
	{
		OFFSET 0 0 0
		CHANNELS 3 Zrotation Yrotation Xrotation
		JOINT RightHip
		{
			OFFSET -1.77229 -1.58346 0.87084
			CHANNELS 3 Zrotation Yrotation Xrotation
			JOINT RightKnee
			{
				OFFSET -2.50703 -6.88801 0.00000
				CHANNELS 3 Zrotation Yrotation Xrotation
				JOINT RightAnkle
				{
					OFFSET -2.61620 -7.18796 0.00000
					CHANNELS 3 Zrotation Yrotation Xrotation
					JOINT RightToe
					{
						OFFSET -0.15190 -0.41735 2.15974
						CHANNELS 3 Zrotation Yrotation Xrotation
						End Site
						{
							OFFSET -0.00000 -0.00000 1.10919
						}
					}
				}
			}
		}
	}
	JOINT lowerback
	{
		OFFSET 0 0 0
		CHANNELS 3 Zrotation Yrotation Xrotation
		JOINT Chest
		{
			OFFSET -0.03602 2.12423 -0.30249
			CHANNELS 3 Zrotation Yrotation Xrotation
			JOINT Chest2
			{
				OFFSET 0.02717 2.10043 0.12912
				CHANNELS 3 Zrotation Yrotation Xrotation
				JOINT lowerneck
				{
					OFFSET 0 0 0
					CHANNELS 3 Zrotation Yrotation Xrotation
					JOINT Neck
					{
						OFFSET -0.06371 1.88656 0.11602
						CHANNELS 3 Zrotation Yrotation Xrotation
						JOINT Head
						{
							OFFSET 0.08208 1.87759 -0.11505
							CHANNELS 3 Zrotation Yrotation Xrotation
							End Site
							{
								OFFSET 0.03382 1.93090 -0.05483
							}
						}
					}
				}
				JOINT LeftCollar
				{
					OFFSET 0 0 0
					CHANNELS 3 Zrotation Yrotation Xrotation
					JOINT LeftShoulder
					{
						OFFSET 3.30903 1.40357 0.20156
CHANNELS 3 Zrotation Xrotation Yrotation
						JOINT LeftElbow
						{
OFFSET 0 -5.433010 0.000000
CHANNELS 3 Zrotation Xrotation Yrotation
							JOINT LeftWrist
							{
OFFSET 0 -3.159360 0.000000
CHANNELS 3 Zrotation Xrotation Yrotation
								JOINT lhand
								{
									OFFSET 0 0 0
CHANNELS 3 Zrotation Xrotation Yrotation
									JOINT LFingers
									{
OFFSET 0 -0.712830 0.000000
CHANNELS 3 Zrotation Xrotation Yrotation
										End Site
										{
OFFSET 0 -0.574700 0.000000
										}
									}
								}
								JOINT LThumb
								{
OFFSET 0 0.000000 0.000000
CHANNELS 3 Zrotation Xrotation Yrotation
									End Site
									{
OFFSET 0 -0.583470 0.583470
									}
								}
							}
						}
					}
				}
				JOINT RightCollar
				{
					OFFSET 0 0 0
					CHANNELS 3 Zrotation Yrotation Xrotation
					JOINT RightShoulder
					{
						OFFSET -3.12947 1.60037 -0.00464
CHANNELS 3 Zrotation Xrotation Yrotation
						JOINT RightElbow
						{
OFFSET 0 -5.341940 0.000000
CHANNELS 3 Zrotation Xrotation Yrotation
							JOINT RightWrist
							{
OFFSET 0 -3.193510 0.000000
CHANNELS 3 Zrotation Xrotation Yrotation
								JOINT rhand
								{
									OFFSET 0 0 0
CHANNELS 3 Zrotation Xrotation Yrotation
									JOINT RFingers
									{
OFFSET 0 -0.743860 0.000000
CHANNELS 3 Zrotation Xrotation Yrotation
										End Site
										{
OFFSET 0 -0.599720 0.000000
										}
									}
								}
								JOINT RThumb
								{
OFFSET 0 0.000000 0.000000
CHANNELS 3 Zrotation Xrotation Yrotation
									End Site
									{
OFFSET 0 -0.608880 0.608880
									}
								}
							}
						}
					}
				}
			}
		}
	}
}
MOTION
Frames: 15
Frame Time: .0083333
-2.4846 16.1924 -39.1096 -9.4895 -18.6071 8.1573 0.0000 0.0000 0.0000 4.7628 -12.7937 -41.2541 5.4220 13.8439 42.6155 0.0913 -3.0359 -5.4560 0.0946 -1.9836 -5.4602 0.0000 0.0000 0.0000 25.9229 3.4888 -8.1887 -4.5664 -12.8782 38.9144 -1.3565 -13.1248 -30.2098 -1.1106 6.6955 -18.8164 3.0140 2.4056 7.7788 3.2482 3.6940 -1.5296 1.2286 1.7713 -5.9940 -10.9393 -11.5867 3.1923 10.0590 -16.4070 7.8089 4.1909 -8.2509 3.5461 0.0000 0.0000 0.0000 4.2817 -2.7862 -21.9485 11.7905 -19.4898 2.0319 28.5582 31.7088 -16.9268 0.0 0.0 0.0 -7.1250 0.0 0.0 0.6785 49.0892 -0.0684 0.0000 0.0000 0.0000 -8.4404 -13.6188 54.0213 -24.8931 -36.0946 -8.2269 -20.558 15.0127 33.6413 0.0 0.0 0.0 7.1250 0.0 -0.0 15.4317 64.7508 -7.4585
-2.4843 16.1908 -39.1071 -9.4627 -18.5681 8.0932 0.0000 0.0000 0.0000 4.7064 -12.7746 -41.2230 5.4235 13.8454 42.6217 0.0888 -3.1159 -5.4006 0.0943 -1.9802 -5.4508 0.0000 0.0000 0.0000 25.9074 3.4554 -8.1242 -4.5663 -12.8780 38.9136 -1.3619 -13.1319 -30.2513 -1.0951 6.6501 -18.6828 2.9902 2.4133 7.7965 3.2208 3.7031 -1.5599 1.2108 1.7756 -6.0357 -11.5952 -11.4075 3.1685 10.8663 -16.2589 7.9571 4.5270 -8.1760 3.6969 -0.0000 0.0000 0.0000 4.2812 -2.4913 -21.4754 11.6111 -19.2189 1.9724 28.4471 32.1023 -16.9475 0.0 0.0 0.0 -7.1250 0.0 0.0 0.5656 49.094 -0.0571 -0.0000 0.0000 0.0000 -8.412 -13.1349 53.692 -24.6438 -35.8377 -8.0804 -19.9302 14.4234 33.9667 0.0 0.0 0.0 7.1250 0.0 -0.0 16.4633 64.8881 -8.0219
-2.4842 16.1894 -39.1047 -9.4348 -18.5040 8.0386 0.0000 0.0000 0.0000 4.6515 -12.7703 -41.2153 5.4257 13.8477 42.6309 0.0870 -3.1751 -5.3616 0.0968 -2.0070 -5.5249 0.0000 0.0000 0.0000 25.8878 3.3855 -8.0814 -4.5673 -12.8792 38.9181 -1.3642 -13.1477 -30.2798 -1.0908 6.6372 -18.6450 2.9655 2.4105 7.7881 3.2004 3.6963 -1.5792 1.2042 1.7726 -6.0514 -11.6037 -11.4322 3.1215 10.8576 -16.2903 7.9886 4.5192 -8.1903 3.7177 -0.0000 -0.0000 0.0000 4.2722 -2.2519 -20.9738 11.3964 -18.8934 1.9023 28.3699 32.5558 -16.9791 0.0 0.0 0.0 -7.1250 0.0 0.0 0.4847 49.1164 -0.0492 -0.0000 -0.0000 0.0000 -8.3954 -12.6513 53.4254 -24.1910 -35.3656 -7.8168 -20.4888 15.0125 33.3097 0.0 0.0 0.0 7.1250 0.0 -0.0 15.2198 64.4129 -7.2345
-2.4840 16.1876 -39.1035 -9.4002 -18.4503 7.9892 0.0000 0.0000 0.0000 4.5956 -12.7642 -41.1996 5.4276 13.8498 42.6390 0.0859 -3.2314 -5.3410 0.0960 -1.9982 -5.5007 0.0000 0.0000 0.0000 25.8577 3.3202 -8.0565 -4.5687 -12.8810 38.9245 -1.3652 -13.1664 -30.3019 -1.1061 6.6823 -18.7776 2.9337 2.4065 7.7732 3.1743 3.6865 -1.5959 1.1961 1.7683 -6.0606 -11.6288 -11.4460 3.1030 10.8810 -16.3121 8.0120 4.5261 -8.2005 3.7342 -0.0000 -0.0000 0.0000 4.2695 -1.9854 -20.5129 11.2421 -18.6584 1.8526 28.351 32.9203 -16.975 0.0 0.0 0.0 -7.1250 0.0 0.0 0.4667 49.1087 -0.0473 -0.0000 -0.0000 0.0000 -8.3641 -12.18 53.1279 -23.8353 -34.9896 -7.6119 -20.4072 15.0263 33.4618 0.0 0.0 0.0 7.1250 0.0 -0.0 15.4486 64.5368 -7.3902
-2.4842 16.1854 -39.1026 -9.3985 -18.4020 7.9349 0.0000 0.0000 0.0000 4.5743 -12.7402 -41.1795 5.4272 13.8493 42.6371 0.0838 -3.3356 -5.3058 0.0932 -1.9690 -5.4201 0.0000 0.0000 0.0000 25.8695 3.2831 -8.0019 -4.5689 -12.8812 38.9253 -1.3657 -13.1930 -30.3283 -1.1031 6.6736 -18.7518 2.9168 2.3982 7.7565 3.1723 3.6734 -1.6084 1.2057 1.7625 -6.0651 -11.6577 -11.4524 3.1161 10.8734 -16.3215 8.0054 4.5281 -8.2066 3.7330 -0.0000 -0.0000 0.0000 4.2621 -1.6578 -20.1424 11.1226 -18.4759 1.8146 28.2915 33.1244 -16.7825 0.0 0.0 0.0 -7.1250 0.0 0.0 0.4371 48.8854 -0.0419 -0.0000 -0.0000 0.0000 -8.345 -11.6881 52.8332 -23.2738 -34.3868 -7.2923 -20.8071 15.6353 32.401 0.0 0.0 0.0 7.1250 0.0 -0.0 14.0880 63.6192 -6.425
-2.4840 16.1838 -39.1020 -9.3676 -18.3246 7.8836 0.0000 0.0000 0.0000 4.5257 -12.7504 -41.1874 5.4318 13.8542 42.6564 0.0811 -3.3855 -5.2440 0.0894 -1.9280 -5.3066 0.0000 0.0000 0.0000 25.8524 3.2301 -7.9691 -4.5699 -12.8824 38.9298 -1.3700 -13.2025 -30.3642 -1.0939 6.6464 -18.6720 2.8740 2.3639 7.7487 3.1696 3.6237 -1.6227 1.2331 1.7393 -6.0780 -11.7148 -11.4375 3.1501 10.9029 -16.3052 7.9701 4.5493 -8.2010 3.7220 0.0000 -0.0000 0.0000 4.2362 -1.3483 -19.7144 11.0176 -18.3153 1.7815 28.2431 33.3806 -16.8507 0.0 0.0 0.0 -7.1250 0.0 0.0 0.3792 48.9532 -0.037 0.0000 -0.0000 0.0000 -8.3282 -11.2276 52.5043 -22.9415 -34.0248 -7.1055 -20.4173 15.1499 33.1679 0.0 0.0 0.0 7.1250 0.0 -0.0 15.1802 64.2567 -7.16
-2.4889 16.1849 -39.0958 -9.2067 -18.2719 7.7356 0.0000 0.0000 0.0000 4.3204 -12.7761 -41.0689 5.4351 13.8577 42.6703 0.0825 -3.4096 -5.2860 0.0889 -1.9234 -5.2939 0.0000 0.0000 0.0000 25.7076 3.1248 -7.8455 -4.5699 -12.8824 38.9299 -1.3836 -13.1861 -30.4388 -1.0758 6.5932 -18.5156 2.7100 2.3810 7.7518 3.1091 3.6268 -1.6131 1.2609 1.7459 -6.0752 -11.5003 -11.5289 3.1039 10.6649 -16.4029 8.0069 4.4368 -8.2470 3.7150 -0.0000 -0.0000 0.0000 4.2859 -0.9707 -19.5593 10.9482 -18.2087 1.7597 28.4318 33.4531 -16.5539 0.0 0.0 0.0 -7.1250 0.0 0.0 0.6086 48.6544 -0.0549 -0.0000 -0.0000 0.0000 -8.2634 -10.6394 51.9403 -22.5187 -33.5583 -6.8704 -20.3802 15.338 33.3137 0.0 0.0 0.0 7.1250 0.0 -0.0 15.3500 64.387 -7.2885
-2.4841 16.1782 -39.1006 -9.4217 -18.1875 7.7877 0.0000 0.0000 0.0000 4.5448 -12.7261 -41.1913 5.4479 13.8711 42.7234 0.0788 -3.5053 -5.2081 0.0894 -1.9287 -5.3087 0.0000 0.0000 0.0000 25.9246 3.0665 -7.8852 -4.5704 -12.8831 38.9324 -1.3737 -13.2196 -30.4033 -1.0866 6.6250 -18.6089 2.9610 2.3731 7.7738 3.1331 3.6429 -1.6052 1.1433 1.7451 -6.0660 -11.6817 -11.5126 2.9599 10.9280 -16.3957 8.0181 4.5309 -8.2375 3.7773 -0.0000 0.0000 0.0000 4.2708 -0.9207 -19.0588 10.7838 -17.9561 1.7087 28.0461 33.8974 -16.777 0.0 0.0 0.0 -7.1250 0.0 0.0 0.1965 48.8394 -0.0186 -0.0000 0.0000 0.0000 -8.2438 -10.3464 51.5179 -21.9574 -32.9288 -6.5627 -20.2786 15.2129 32.9553 0.0 0.0 0.0 7.1250 0.0 -0.0 15.1594 64.0142 -7.0644
-2.4844 16.1755 -39.1001 -9.4354 -18.1144 7.7499 0.0000 0.0000 0.0000 4.5492 -12.7402 -41.2025 5.4570 13.8807 42.7615 0.0785 -3.5493 -5.2110 0.0934 -1.9714 -5.4267 0.0000 0.0000 0.0000 25.9553 3.0086 -7.8502 -4.5714 -12.8842 38.9365 -1.3861 -13.1907 -30.4588 -1.0691 6.5731 -18.4566 2.9731 2.3683 7.7744 3.1245 3.6378 -1.6150 1.1281 1.7418 -6.0753 -11.6787 -11.5055 2.9108 11.0260 -16.3908 8.0099 4.5570 -8.2312 3.7899 0.0000 0.0000 0.0000 4.2761 -0.6246 -18.8099 10.7425 -17.8924 1.6959 27.9448 33.9544 -16.637 0.0 0.0 0.0 -7.1250 0.0 0.0 0.1186 48.6682 -0.0107 0.0000 0.0000 0.0000 -8.2089 -9.8819 51.0175 -21.3949 -32.2864 -6.2596 -20.2732 15.3726 32.7362 0.0 0.0 0.0 7.1250 0.0 -0.0 14.9810 63.8012 -6.905
-2.4845 16.1724 -39.0991 -9.4550 -18.0338 7.7098 0.0000 0.0000 0.0000 4.5614 -12.7516 -41.2201 5.4710 13.8954 42.8199 0.0802 -3.5884 -5.2663 0.0999 -2.0387 -5.6126 0.0000 0.0000 0.0000 25.9910 2.9436 -7.8089 -4.5727 -12.8858 38.9426 -1.3878 -13.2187 -30.4937 -1.0676 6.5688 -18.4441 2.9944 2.3511 7.7638 3.1201 3.6169 -1.6317 1.1144 1.7305 -6.0853 -11.6741 -11.5164 2.8710 11.0229 -16.4079 8.0802 4.5496 -8.2379 3.8189 0.0000 0.0000 0.0000 4.2887 -0.3584 -18.5613 10.6634 -17.7706 1.6718 27.7825 34.0597 -16.6408 0.0 0.0 0.0 -7.1250 0.0 0.0 -0.0410 48.6464 0.0037 0.0000 0.0000 0.0000 -8.1694 -9.3878 50.5303 -20.8554 -31.6592 -5.9739 -19.9612 15.6506 33.6306 0.0 0.0 0.0 7.1250 0.0 -0.0 16.1196 64.5761 -7.7337
-2.4851 16.1700 -39.0988 -9.4483 -17.9798 7.6721 0.0000 0.0000 0.0000 4.5544 -12.7725 -41.2226 5.4777 13.9024 42.8477 0.0831 -3.5772 -5.3438 0.1101 -2.1390 -5.8899 0.0000 0.0000 0.0000 25.9897 2.8790 -7.7900 -4.5751 -12.8887 38.9533 -1.3986 -13.1906 -30.5395 -1.0577 6.5390 -18.3565 2.9495 2.3320 7.7698 3.1257 3.5889 -1.6547 1.1482 1.7181 -6.1160 -11.7284 -11.5539 2.9613 10.9538 -16.4580 8.0424 4.5394 -8.2690 3.7976 -0.0000 0.0000 0.0000 4.2797 -0.07 -18.341 10.6109 -17.6894 1.6558 27.7359 34.1436 -16.6926 0.0 0.0 0.0 -7.1250 0.0 0.0 -0.0946 48.6961 0.0086 -0.0000 0.0000 0.0000 -8.1585 -8.8955 50.0707 -20.3207 -31.0268 -5.6957 -19.9534 15.8525 33.8356 0.0 0.0 0.0 7.1250 0.0 -0.0 16.3152 64.7695 -7.9031
-2.4858 16.1680 -39.0983 -9.4573 -17.9447 7.6375 0.0000 0.0000 0.0000 4.5432 -12.7379 -41.2268 5.4848 13.9097 42.8771 0.0881 -3.5271 -5.4634 0.1329 -2.3495 -6.4725 0.0000 0.0000 0.0000 26.0048 2.8208 -7.7688 -4.5781 -12.8924 38.9669 -1.3943 -13.2231 -30.5391 -1.0806 6.6073 -18.5569 2.9453 2.3278 7.7383 3.1206 3.5811 -1.6575 1.1474 1.7145 -6.1010 -11.0798 -11.7599 3.0179 10.1033 -16.6455 7.9398 4.1894 -8.3660 3.6550 0.0000 -0.0000 0.0000 4.2946 0.184 -18.1644 10.5689 -17.6244 1.643 27.6847 34.0766 -16.4307 0.0 0.0 0.0 -7.1250 0.0 0.0 -0.1041 48.3987 0.0087 0.0000 -0.0000 0.0000 -8.1098 -8.4618 49.5027 -19.7085 -30.2895 -5.3835 -19.8076 15.8867 33.5934 0.0 0.0 0.0 7.1250 0.0 -0.0 16.2645 64.4984 -7.7756
-2.4868 16.1670 -39.0982 -9.4263 -17.9116 7.5733 0.0000 0.0000 0.0000 4.4986 -12.7586 -41.1857 5.4896 13.9148 42.8971 0.0937 -3.4254 -5.5911 0.1588 -2.5678 -7.0777 0.0000 0.0000 0.0000 25.9855 2.7808 -7.7267 -4.5824 -12.8975 38.9858 -1.3955 -13.2393 -30.5608 -1.0811 6.6089 -18.5617 2.8836 2.3037 7.7259 3.1239 3.5432 -1.6724 1.1903 1.6981 -6.1133 -11.1342 -11.7415 3.0633 10.0963 -16.6259 7.9519 4.1991 -8.3594 3.6531 -0.0000 -0.0000 0.0000 4.2848 0.4909 -17.9773 10.5444 -17.5865 1.6356 28.0798 33.8447 -15.598 0.0 0.0 0.0 -7.1250 0.0 0.0 0.3993 47.5372 -0.025 -0.0000 -0.0000 0.0000 -8.0777 -7.9564 48.9506 -19.1279 -29.5774 -5.0938 -19.8877 16.2242 33.8289 0.0 0.0 0.0 7.1250 0.0 -0.0 16.3855 64.745 -7.9287
-2.4876 16.1650 -39.0987 -9.4152 -17.8699 7.5418 0.0000 0.0000 0.0000 4.4779 -12.7518 -41.2010 5.4941 13.9195 42.9159 0.0982 -3.3667 -5.6948 0.1839 -2.7617 -7.6160 0.0000 0.0000 0.0000 25.9855 2.7383 -7.7240 -4.5869 -12.9029 39.0060 -1.3849 -13.3042 -30.5484 -1.0761 6.5940 -18.5179 2.8458 2.2949 7.7343 3.1192 3.5300 -1.7128 1.2072 1.6923 -6.1628 -11.8189 -11.5254 3.0891 10.9559 -16.4379 8.0905 4.5617 -8.2659 3.7966 -0.0000 -0.0000 0.0000 4.2814 0.787 -17.8134 10.5291 -17.5629 1.631 27.5369 33.9942 -16.2384 0.0 0.0 0.0 -7.1250 0.0 0.0 -0.2187 48.1632 0.0171 -0.0000 -0.0000 0.0000 -8.0417 -7.4471 48.3308 -18.5301 -28.8306 -4.8021 -19.4157 16.2748 34.1517 0.0 0.0 0.0 7.1250 0.0 -0.0 17.2365 64.921 -8.4222
-2.4887 16.1631 -39.0994 -9.4329 -17.8537 7.4874 0.0000 0.0000 0.0000 4.4901 -12.7660 -41.1541 5.4979 13.9235 42.9318 0.1024 -3.2899 -5.7897 0.2042 -2.9098 -8.0277 0.0000 0.0000 0.0000 26.0218 2.7323 -7.6613 -4.5906 -12.9074 39.0229 -1.3920 -13.2917 -30.5833 -1.0733 6.5856 -18.4933 2.8392 2.2935 7.7576 3.1227 3.5293 -1.7206 1.2136 1.6919 -6.1849 -11.8005 -11.4911 2.9933 10.9960 -16.3944 8.1840 4.5660 -8.2393 3.8369 0.0000 0.0000 0.0000 4.3008 1.0167 -17.7662 10.5069 -17.5285 1.6243 27.5045 33.9765 -16.3144 0.0 0.0 0.0 -7.1250 0.0 0.0 -0.2618 48.242 0.0209 0.0000 0.0000 0.0000 -7.9903 -7.0224 47.6614 -17.8875 -28.0128 -4.4963 -19.6413 16.6698 34.2481 0.0 0.0 0.0 7.1250 0.0 -0.0 17.0654 65.075 -8.3971
